<svg width="10" height="12" viewBox="0 0 10 12" fill="none" xmlns="http://www.w3.org/2000/svg">
<rect width="10" height="12" fill="#1E1E1E"/>
<g id="Constructor Components">
<path d="M-917 -1591C-917 -1592.1 -916.105 -1593 -915 -1593H4462C4463.1 -1593 4464 -1592.1 4464 -1591V1219C4464 1220.1 4463.1 1221 4462 1221H-915C-916.104 1221 -917 1220.1 -917 1219V-1591Z" fill="#444444"/>
<path d="M-915 -1592H4462V-1594H-915V-1592ZM4463 -1591V1219H4465V-1591H4463ZM4462 1220H-915V1222H4462V1220ZM-916 1219V-1591H-918V1219H-916ZM-915 1220C-915.552 1220 -916 1219.55 -916 1219H-918C-918 1220.66 -916.657 1222 -915 1222V1220ZM4463 1219C4463 1219.55 4462.55 1220 4462 1220V1222C4463.66 1222 4465 1220.66 4465 1219H4463ZM4462 -1592C4462.55 -1592 4463 -1591.55 4463 -1591H4465C4465 -1592.66 4463.66 -1594 4462 -1594V-1592ZM-915 -1594C-916.657 -1594 -918 -1592.66 -918 -1591H-916C-916 -1591.55 -915.552 -1592 -915 -1592V-1594Z" fill="white" fill-opacity="0.1"/>
<g id="Frame 2608319">
<g clip-path="url(#clip0_0_1)">
<rect x="-766" y="-22" width="1153" height="916" rx="6" fill="#FFFEF9"/>
<g id="Frame 2608363">
<g id="Frame 2608399">
<g id="Frame 2608397">
<g id="Button Icon">
<path d="M-14.5 -8C-14.5 -11.0376 -12.0376 -13.5 -9 -13.5H19C22.0376 -13.5 24.5 -11.0376 24.5 -8V20C24.5 23.0376 22.0376 25.5 19 25.5H-9C-12.0376 25.5 -14.5 23.0376 -14.5 20V-8Z" fill="white"/>
<path d="M-14.5 -8C-14.5 -11.0376 -12.0376 -13.5 -9 -13.5H19C22.0376 -13.5 24.5 -11.0376 24.5 -8V20C24.5 23.0376 22.0376 25.5 19 25.5H-9C-12.0376 25.5 -14.5 23.0376 -14.5 20V-8Z" stroke="#C3C3D0"/>
<g id="Icons &#226;&#128;&#148; Interface" clip-path="url(#clip1_0_1)">
<path id="Vector" d="M8.17041 6.72373L3.22067 11.6735L2.39571 10.8485L7.34546 5.89877C8.25703 4.98719 8.25703 3.51052 7.34546 2.59894C6.43388 1.68736 4.9572 1.68736 4.04562 2.59894L2.32559 4.31897H3.63727L3.63314 5.48629H0.333313V2.18646H1.4965L1.50063 3.49402L3.22067 1.77398C4.58597 0.408674 6.80511 0.408674 8.17041 1.77398C9.53572 3.13928 9.53572 5.35842 8.17041 6.72373Z" fill="#262626"/>
</g>
</g>
</g>
</g>
</g>
</g>
<rect x="-765.5" y="-21.5" width="1152" height="915" rx="5.5" stroke="#C3C3D0"/>
</g>
</g>
<defs>
<clipPath id="clip0_0_1">
<rect x="-766" y="-22" width="1153" height="916" rx="6" fill="white"/>
</clipPath>
<clipPath id="clip1_0_1">
<rect width="20" height="20" fill="white" transform="translate(-5 -4)"/>
</clipPath>
</defs>
</svg>
