<svg width="18" height="18" viewBox="0 0 18 18" xmlns="http://www.w3.org/2000/svg">
<path d="M8.99999 8.08332C8.49166 8.08332 8.08332 8.49166 8.08332 8.99999C8.08332 9.50832 8.49166 9.91666 8.99999 9.91666C9.50832 9.91666 9.91666 9.50832 9.91666 8.99999C9.91666 8.49166 9.50832 8.08332 8.99999 8.08332ZM8.99999 0.666656C4.39999 0.666656 0.666656 4.39999 0.666656 8.99999C0.666656 13.6 4.39999 17.3333 8.99999 17.3333C13.6 17.3333 17.3333 13.6 17.3333 8.99999C17.3333 4.39999 13.6 0.666656 8.99999 0.666656ZM10.825 10.825L3.99999 14L7.17499 7.17499L14 3.99999L10.825 10.825Z"/>
</svg>
