<svg width="18" height="20" viewBox="0 0 18 20" fill="none" xmlns="http://www.w3.org/2000/svg">
<path d="M5.55 20.0001C5.08333 20.0001 4.675 19.8584 4.325 19.5751C3.975 19.2918 3.74167 18.9251 3.625 18.4751L2.5 14.0001H15.5L14.375 18.4751C14.2583 18.9251 14.025 19.2918 13.675 19.5751C13.325 19.8584 12.9167 20.0001 12.45 20.0001H5.55ZM3.75 0.0501065C5.23333 0.23344 6.47933 0.88744 7.488 2.01211C8.496 3.13744 9 4.46677 9 6.00011C9 4.46677 9.504 3.13744 10.512 2.01211C11.5207 0.88744 12.7667 0.23344 14.25 0.0501065C14.45 0.0167732 14.625 0.0751065 14.775 0.225106C14.925 0.375107 14.9833 0.550107 14.95 0.750107C14.7833 2.06677 14.2417 3.19577 13.325 4.13711C12.4083 5.07911 11.3 5.66677 10 5.90011V8.00011H17C17.2833 8.00011 17.5207 8.09577 17.712 8.28711C17.904 8.47911 18 8.71677 18 9.00011V11.0001C18 11.5501 17.8043 12.0208 17.413 12.4121C17.021 12.8041 16.55 13.0001 16 13.0001H2C1.45 13.0001 0.979 12.8041 0.587 12.4121C0.195667 12.0208 0 11.5501 0 11.0001V9.00011C0 8.71677 0.0960001 8.47911 0.288 8.28711C0.479333 8.09577 0.716667 8.00011 1 8.00011H8V5.90011C6.7 5.66677 5.59167 5.07911 4.675 4.13711C3.75833 3.19577 3.21667 2.06677 3.05 0.750107C3.01667 0.550107 3.075 0.375107 3.225 0.225106C3.375 0.0751065 3.55 0.0167732 3.75 0.0501065Z" fill="#C3C3D0"/>
</svg>
