<svg width="10" height="12" viewBox="0 0 10 12" fill="none" xmlns="http://www.w3.org/2000/svg">
<path d="M5.00001 8.52785C5.55612 8.52785 6.01112 8.07285 6.01112 7.51674C6.01112 6.96063 5.55612 6.50563 5.00001 6.50563C4.4439 6.50563 3.9889 6.96063 3.9889 7.51674C3.9889 8.07285 4.4439 8.52785 5.00001 8.52785ZM8.03334 3.97785H7.52779V2.96674C7.52779 1.57141 6.39534 0.438965 5.00001 0.438965C3.60468 0.438965 2.47223 1.57141 2.47223 2.96674H3.43279C3.43279 2.10224 4.13551 1.39952 5.00001 1.39952C5.86451 1.39952 6.56723 2.10224 6.56723 2.96674V3.97785H1.96668C1.41057 3.97785 0.955566 4.43285 0.955566 4.98897V10.0445C0.955566 10.6006 1.41057 11.0556 1.96668 11.0556H8.03334C8.58945 11.0556 9.04445 10.6006 9.04445 10.0445V4.98897C9.04445 4.43285 8.58945 3.97785 8.03334 3.97785ZM8.03334 10.0445H1.96668V4.98897H8.03334V10.0445Z" fill="#6D6D6D"/>
</svg>
