<svg xmlns="http://www.w3.org/2000/svg" width="95" height="24" viewBox="0 0 95 24">
  <path d="M4.62012 23.1016C3.58012 23.1016 2.71012 22.8716 2.01012 22.4116C1.33012 21.9316 0.820122 21.2216 0.480122 20.2816C0.160122 19.3416 0.00012207 18.1516 0.00012207 16.7116V5.16161H3.48012V16.0216C3.48012 17.0016 3.51012 17.7716 3.57012 18.3316C3.63012 18.8716 3.73012 19.2516 3.87012 19.4716C4.03012 19.6516 4.24012 19.7816 4.50012 19.8616C4.76012 19.9416 5.06012 19.9816 5.40012 19.9816C6.16012 19.9816 6.94012 19.8316 7.74012 19.5316C8.54012 19.2116 9.26012 18.8816 9.90012 18.5416V5.16161H13.3501V22.7116H11.1001L10.6801 20.9716H10.5001C10.1001 21.1916 9.59012 21.4716 8.97012 21.8116C8.35012 22.1516 7.67012 22.4516 6.93012 22.7116C6.19012 22.9716 5.42012 23.1016 4.62012 23.1016Z"/>
  <path d="M18.8179 22.7116V5.16161H21.0679L21.4879 6.90161H21.6379C21.9179 6.74161 22.2779 6.54161 22.7179 6.30161C23.1579 6.06161 23.6579 5.82161 24.2179 5.58161C24.7779 5.34161 25.3779 5.15161 26.0179 5.01161C26.6579 4.85161 27.3079 4.77161 27.9679 4.77161C29.1279 4.77161 30.0079 5.05161 30.6079 5.61161C31.2279 6.17161 31.6479 6.93161 31.8679 7.89161C32.0879 8.85161 32.1979 9.93161 32.1979 11.1316V22.7116H28.7179V12.0016C28.7179 10.9816 28.6979 10.2116 28.6579 9.69161C28.6179 9.15161 28.4979 8.74161 28.2979 8.46161C28.1579 8.24161 27.9579 8.10161 27.6979 8.04161C27.4379 7.96161 27.1579 7.92161 26.8579 7.92161C26.2779 7.92161 25.6779 8.01161 25.0579 8.19161C24.4579 8.37161 23.9079 8.57161 23.4079 8.79161C22.9079 9.01161 22.5379 9.20161 22.2979 9.36161V22.7116H18.8179Z"/>
  <path d="M37.3349 22.7116V5.16161H40.8149V22.7116H37.3349Z"/>
  <path d="M46.3276 22.7116V5.16161H48.5776L48.9976 6.90161H49.1476C49.4276 6.74161 49.7876 6.54161 50.2276 6.30161C50.6676 6.06161 51.1676 5.82161 51.7276 5.58161C52.2876 5.34161 52.8876 5.15161 53.5276 5.01161C54.1676 4.85161 54.8176 4.77161 55.4776 4.77161C56.6376 4.77161 57.5176 5.05161 58.1176 5.61161C58.7376 6.17161 59.1576 6.93161 59.3776 7.89161C59.5976 8.85161 59.7076 9.93161 59.7076 11.1316V22.7116H56.2276V12.0016C56.2276 10.9816 56.2076 10.2116 56.1676 9.69161C56.1276 9.15161 56.0076 8.74161 55.8076 8.46161C55.6676 8.24161 55.4676 8.10161 55.2076 8.04161C54.9476 7.96161 54.6676 7.92161 54.3676 7.92161C53.7876 7.92161 53.1876 8.01161 52.5676 8.19161C51.9676 8.37161 51.4176 8.57161 50.9176 8.79161C50.4176 9.01161 50.0476 9.20161 49.8076 9.36161V22.7116H46.3276Z"/>
  <path d="M68.5347 23.1016C67.5947 23.1016 66.7547 22.8816 66.0147 22.4416C65.2747 22.0016 64.6947 21.3616 64.2747 20.5216C63.8547 19.6816 63.6447 18.6616 63.6447 17.4616C63.6447 16.0216 63.9447 14.8916 64.5447 14.0716C65.1646 13.2516 66.0247 12.6716 67.1247 12.3316C68.2447 11.9716 69.5546 11.7916 71.0546 11.7916H73.8147C73.8147 10.8516 73.7747 10.1016 73.6946 9.54161C73.6347 8.96161 73.5147 8.53161 73.3347 8.25161C73.1747 8.05161 72.9446 7.90161 72.6447 7.80161C72.3647 7.70161 71.9547 7.65161 71.4147 7.65161C70.6747 7.65161 69.9247 7.72161 69.1647 7.86161C68.4047 7.98161 67.7047 8.14161 67.0647 8.34161C66.4447 8.52161 65.9347 8.68161 65.5347 8.82161C65.1547 8.94161 64.9647 9.00161 64.9647 9.00161L64.0647 6.42161C64.0647 6.42161 64.2547 6.34161 64.6347 6.18161C65.0347 6.00161 65.5647 5.81161 66.2247 5.61161C66.9047 5.39161 67.6646 5.20161 68.5047 5.04161C69.3447 4.86161 70.2346 4.77161 71.1747 4.77161C72.6947 4.77161 73.8947 5.04161 74.7747 5.58161C75.6747 6.10161 76.3147 6.85161 76.6947 7.83161C77.0747 8.79161 77.2647 9.93161 77.2647 11.2516V22.7116H75.0447L74.5947 20.8216H74.4146C74.2947 20.9016 74.0546 21.0716 73.6946 21.3316C73.3346 21.5716 72.8847 21.8316 72.3447 22.1116C71.8247 22.3716 71.2346 22.6016 70.5747 22.8016C69.9347 23.0016 69.2547 23.1016 68.5347 23.1016ZM69.3747 20.1916C70.0147 20.1916 70.6447 20.0916 71.2646 19.8916C71.9046 19.6916 72.4547 19.4816 72.9147 19.2616C73.3747 19.0216 73.6747 18.8516 73.8147 18.7516V14.6116C73.6747 14.5916 73.3447 14.5616 72.8247 14.5216C72.3247 14.4616 71.6747 14.4316 70.8746 14.4316C69.2547 14.4316 68.2547 14.6016 67.8747 14.9416C67.6747 15.1216 67.5147 15.4216 67.3947 15.8416C67.2747 16.2416 67.2147 16.7516 67.2147 17.3716C67.2147 18.3516 67.3746 19.0716 67.6947 19.5316C68.0347 19.9716 68.5947 20.1916 69.3747 20.1916Z"/>
  <path d="M85.2979 22.7116L80.1979 5.16161H83.8279L87.3379 19.7716H87.5179L90.9979 5.16161H94.6279L89.5579 22.7116H85.2979Z"/>
  <path d="M39.5013 0.898438H38.6263C37.9015 0.898438 37.3138 1.48606 37.3138 2.21094C37.3138 2.93581 37.9015 3.52344 38.6263 3.52344H39.5013C40.2262 3.52344 40.8138 2.93581 40.8138 2.21094C40.8138 1.48606 40.2262 0.898438 39.5013 0.898438Z"/>
</svg>