<svg width="40" height="40" viewBox="0 0 40 40" fill="none" xmlns="http://www.w3.org/2000/svg">
<rect width="40" height="40" rx="4.26667" fill="#041E00"/>
<g clip-path="url(#clip0_1468_29)">
<path d="M5.88606 13.9437C5.74547 13.3786 6.38603 12.6957 7.01088 12.8134C8.01074 13.0018 8.51067 13.0018 9.5105 12.8134C10.1354 12.7506 10.7468 13.253 10.6353 13.9437C10.477 14.9247 10.4793 15.4769 10.6353 16.4555C10.8228 17.0835 10.1278 17.7022 9.5105 17.5859C8.5107 17.3975 8.01078 17.3975 7.01088 17.5859C6.39367 17.7021 5.82358 17.0835 5.88606 16.4555C6.07354 15.5136 6.07354 15.0113 5.88606 13.9437Z" fill="#50D000"/>
</g>
<rect x="5.19986" y="12.1333" width="6.13333" height="6.13333" rx="1.2" stroke="#50D000" stroke-width="0.266667"/>
<g clip-path="url(#clip1_1468_29)">
<path d="M12.9527 20.877C12.8121 20.3118 13.4527 19.6289 14.0775 19.7466C15.0774 19.935 15.5773 19.935 16.5771 19.7466C17.2021 19.6838 17.8135 20.1862 17.702 20.877C17.5436 21.8579 17.546 22.4101 17.702 23.3888C17.8894 24.0167 17.1945 24.6354 16.5771 24.5191C15.5773 24.3307 15.0774 24.3307 14.0775 24.5191C13.4603 24.6354 12.8902 24.0167 12.9527 23.3888C13.1402 22.4468 13.1402 21.9445 12.9527 20.877Z" fill="#50D000"/>
</g>
<rect x="12.2665" y="19.0666" width="6.13333" height="6.13333" rx="1.2" stroke="#50D000" stroke-width="0.266667"/>
<g clip-path="url(#clip2_1468_29)">
<path d="M12.9527 13.9437C12.8121 13.3786 13.4527 12.6957 14.0775 12.8134C15.0774 13.0018 15.5773 13.0018 16.5771 12.8134C17.2021 12.7506 17.8135 13.253 17.702 13.9437C17.5436 14.9247 17.546 15.4769 17.702 16.4555C17.8894 17.0835 17.1945 17.7022 16.5771 17.5859C15.5773 17.3975 15.0774 17.3975 14.0775 17.5859C13.4603 17.7021 12.8902 17.0835 12.9527 16.4555C13.1402 15.5136 13.1402 15.0113 12.9527 13.9437Z" fill="#50D000"/>
</g>
<rect x="12.2665" y="12.1333" width="6.13333" height="6.13333" rx="1.2" stroke="#50D000" stroke-width="0.266667"/>
<g clip-path="url(#clip3_1468_29)">
<path d="M12.9527 27.8104C12.8121 27.2452 13.4527 26.5623 14.0775 26.6801C15.0774 26.8684 15.5773 26.8684 16.5771 26.6801C17.2021 26.6172 17.8135 27.1196 17.702 27.8104C17.5436 28.7913 17.546 29.3435 17.702 30.3222C17.8894 30.9501 17.1945 31.5688 16.5771 31.4525C15.5773 31.2641 15.0774 31.2641 14.0775 31.4525C13.4603 31.5688 12.8902 30.9501 12.9527 30.3222C13.1402 29.3803 13.1402 28.8779 12.9527 27.8104Z" fill="#50D000"/>
</g>
<rect x="12.2665" y="26" width="6.13333" height="6.13333" rx="1.2" stroke="#50D000" stroke-width="0.266667"/>
<g clip-path="url(#clip4_1468_29)">
<path d="M19.8861 27.8104C19.7455 27.2452 20.386 26.5623 21.0109 26.6801C22.0107 26.8684 22.5107 26.8684 23.5105 26.6801C24.1354 26.6172 24.7468 27.1196 24.6353 27.8104C24.477 28.7913 24.4793 29.3435 24.6353 30.3222C24.8228 30.9501 24.1278 31.5688 23.5105 31.4525C22.5107 31.2641 22.0108 31.2641 21.0109 31.4525C20.3937 31.5688 19.8236 30.9501 19.8861 30.3222C20.0735 29.3803 20.0735 28.8779 19.8861 27.8104Z" fill="#50D000"/>
</g>
<rect x="19.1997" y="26" width="6.13333" height="6.13333" rx="1.2" stroke="#50D000" stroke-width="0.266667"/>
<rect x="26.1331" y="26" width="6.13333" height="6.13333" rx="1.2" stroke="#50D000" stroke-width="0.266667"/>
<path d="M26.8194 27.8104C26.6788 27.2452 27.3194 26.5623 27.9442 26.6801C28.9441 26.8684 29.444 26.8684 30.4438 26.6801C31.0688 26.6172 31.6802 27.1196 31.5687 27.8104C31.4103 28.7913 31.4127 29.3435 31.5687 30.3222C31.7561 30.9501 31.0612 31.5688 30.4438 31.4525C29.444 31.2641 28.9441 31.2641 27.9442 31.4525C27.327 31.5688 26.7569 30.9501 26.8194 30.3222C27.0069 29.3803 27.0069 28.8779 26.8194 27.8104Z" fill="#50D000"/>
<rect x="26.1331" y="19.0666" width="6.13333" height="6.13333" rx="1.2" stroke="#50D000" stroke-width="0.266667"/>
<path d="M26.8194 20.877C26.6788 20.3118 27.3194 19.6289 27.9442 19.7466C28.9441 19.935 29.444 19.935 30.4438 19.7466C31.0688 19.6838 31.6802 20.1862 31.5687 20.877C31.4103 21.8579 31.4127 22.4101 31.5687 23.3888C31.7561 24.0167 31.0612 24.6354 30.4438 24.5191C29.444 24.3307 28.9441 24.3307 27.9442 24.5191C27.327 24.6354 26.7569 24.0167 26.8194 23.3888C27.0069 22.4468 27.0069 21.9445 26.8194 20.877Z" fill="#50D000"/>
<rect x="27.0667" y="7.73334" width="4.26667" height="4.26667" rx="1.06667" fill="#F1D302"/>
<defs>
<clipPath id="clip0_1468_29">
<rect x="5.06653" y="12" width="6.4" height="6.4" rx="1.33333" fill="white"/>
</clipPath>
<clipPath id="clip1_1468_29">
<rect x="12.1332" y="18.9333" width="6.4" height="6.4" rx="1.33333" fill="white"/>
</clipPath>
<clipPath id="clip2_1468_29">
<rect x="12.1332" y="12" width="6.4" height="6.4" rx="1.33333" fill="white"/>
</clipPath>
<clipPath id="clip3_1468_29">
<rect x="12.1332" y="25.8666" width="6.4" height="6.4" rx="1.33333" fill="white"/>
</clipPath>
<clipPath id="clip4_1468_29">
<rect x="19.0664" y="25.8666" width="6.4" height="6.4" rx="1.33333" fill="white"/>
</clipPath>
</defs>
</svg>
