<svg width="14" height="10" viewBox="0 0 14 10" fill="none" xmlns="http://www.w3.org/2000/svg">
<path d="M13.5799 4.66674C13.1532 3.92674 10.8065 0.21341 6.81988 0.33341C3.13322 0.426744 0.999883 3.66674 0.419883 4.66674C0.361371 4.76809 0.330566 4.88305 0.330566 5.00008C0.330566 5.1171 0.361371 5.23206 0.419883 5.33341C0.839883 6.06008 3.08655 9.66674 7.01322 9.66674H7.17988C10.8665 9.57341 13.0065 6.33341 13.5799 5.33341C13.6384 5.23206 13.6692 5.1171 13.6692 5.00008C13.6692 4.88305 13.6384 4.76809 13.5799 4.66674ZM7.14655 8.33341C4.27322 8.40008 2.39988 5.94008 1.81322 5.00008C2.47988 3.92674 4.21988 1.73341 6.88655 1.66674C9.74655 1.59341 11.6265 4.06008 12.2199 5.00008C11.5332 6.07341 9.81322 8.26674 7.14655 8.33341Z" fill="#60636C"/>
</svg>
