<svg xmlns="http://www.w3.org/2000/svg" width="20" height="14" viewBox="0 0 20 14">
  <path d="M19.8698 6.49999C19.2298 5.38999 15.7098 -0.180006 9.72982 -6.38235e-06C4.19982 0.139994 0.999824 4.99999 0.129824 6.49999C0.0420559 6.65201 -0.00415039 6.82446 -0.00415039 6.99999C-0.00415039 7.17553 0.0420559 7.34797 0.129824 7.49999C0.759824 8.58999 4.12983 14 10.0198 14H10.2698C15.7998 13.86 19.0098 8.99999 19.8698 7.49999C19.9576 7.34797 20.0038 7.17553 20.0038 6.99999C20.0038 6.82446 19.9576 6.65201 19.8698 6.49999ZM10.2198 12C5.90982 12.1 3.09982 8.40999 2.21982 6.99999C3.21982 5.38999 5.82982 2.09999 9.82982 1.99999C14.1198 1.88999 16.9398 5.58999 17.8298 6.99999C16.7998 8.60999 14.2198 11.9 10.2198 12Z"/>
  <path d="M9.99976 3.5C9.30752 3.5 8.63083 3.70527 8.05526 4.08986C7.47969 4.47444 7.03109 5.02107 6.76618 5.66061C6.50127 6.30015 6.43196 7.00388 6.56701 7.68282C6.70206 8.36175 7.0354 8.98539 7.52488 9.47487C8.01437 9.96436 8.63801 10.2977 9.31694 10.4327C9.99587 10.5678 10.6996 10.4985 11.3391 10.2336C11.9787 9.96867 12.5253 9.52007 12.9099 8.9445C13.2945 8.36892 13.4998 7.69223 13.4998 7C13.4998 6.07174 13.131 5.1815 12.4746 4.52513C11.8183 3.86875 10.928 3.5 9.99976 3.5ZM9.99976 8.5C9.70309 8.5 9.41308 8.41203 9.1664 8.2472C8.91973 8.08238 8.72747 7.84811 8.61394 7.57403C8.50041 7.29994 8.4707 6.99834 8.52858 6.70736C8.58646 6.41639 8.72932 6.14912 8.9391 5.93934C9.14888 5.72956 9.41615 5.5867 9.70712 5.52882C9.99809 5.47094 10.2997 5.50065 10.5738 5.61418C10.8479 5.72771 11.0821 5.91997 11.247 6.16665C11.4118 6.41332 11.4998 6.70333 11.4998 7C11.4998 7.39782 11.3417 7.77936 11.0604 8.06066C10.7791 8.34196 10.3976 8.5 9.99976 8.5Z"/>
</svg>