<svg xmlns="http://www.w3.org/2000/svg" width="12" height="10" viewBox="0 0 12 10">
  <path d="M11.7575 4.70834C11.3841 4.06084 9.33079 0.811673 5.84246 0.916673C2.61662 0.99834 0.749959 3.83334 0.242459 4.70834C0.19126 4.79702 0.164307 4.89761 0.164307 5.00001C0.164307 5.1024 0.19126 5.203 0.242459 5.29167C0.609958 5.92751 2.57579 9.08334 6.01163 9.08334H6.15746C9.38329 9.00167 11.2558 6.16667 11.7575 5.29167C11.8087 5.203 11.8356 5.1024 11.8356 5.00001C11.8356 4.89761 11.8087 4.79702 11.7575 4.70834ZM6.12829 7.91667C3.61413 7.97501 1.97496 5.82251 1.46162 5.00001C2.04496 4.06084 3.56746 2.14167 5.90079 2.08334C8.40329 2.01917 10.0483 4.17751 10.5675 5.00001C9.96663 5.93917 8.46163 7.85834 6.12829 7.91667Z"/>
  <path d="M5.99992 2.95837C5.59612 2.95837 5.20138 3.07812 4.86563 3.30246C4.52988 3.5268 4.26819 3.84566 4.11367 4.21873C3.95914 4.59179 3.9187 5.00231 3.99748 5.39835C4.07626 5.79439 4.27071 6.15818 4.55624 6.44372C4.84178 6.72925 5.20557 6.9237 5.60161 7.00248C5.99765 7.08126 6.40817 7.04082 6.78123 6.88629C7.1543 6.73177 7.47316 6.47008 7.6975 6.13433C7.92184 5.79858 8.04159 5.40384 8.04159 5.00004C8.04159 4.45856 7.82648 3.93925 7.4436 3.55636C7.06071 3.17348 6.5414 2.95837 5.99992 2.95837ZM5.99992 5.87504C5.82686 5.87504 5.65769 5.82372 5.5138 5.72758C5.3699 5.63143 5.25775 5.49477 5.19152 5.33489C5.1253 5.175 5.10797 4.99907 5.14173 4.82934C5.17549 4.6596 5.25883 4.50369 5.3812 4.38132C5.50357 4.25895 5.65948 4.17562 5.82922 4.14185C5.99895 4.10809 6.17488 4.12542 6.33477 4.19165C6.49465 4.25787 6.63131 4.37002 6.72746 4.51392C6.8236 4.65781 6.87492 4.82698 6.87492 5.00004C6.87492 5.23211 6.78273 5.45466 6.61864 5.61876C6.45454 5.78285 6.23198 5.87504 5.99992 5.87504Z"/>
</svg>