<svg width="12" height="12" viewBox="0 0 12 12" fill="none" xmlns="http://www.w3.org/2000/svg">
<path d="M11.8333 3.08332V1.91666H10.0833V0.166656H8.91666V1.91666H6.58332V0.166656H5.41666V1.91666H3.08332V0.166656H1.91666V1.91666H0.166656V3.08332H1.91666V5.41666H0.166656V6.58332H1.91666V8.91666H0.166656V10.0833H1.91666V11.8333H3.08332V10.0833H5.41666V11.8333H6.58332V10.0833H8.91666V11.8333H10.0833V10.0833H11.8333V8.91666H10.0833V6.58332H11.8333V5.41666H10.0833V3.08332H11.8333ZM3.08332 3.08332H5.41666V5.41666H3.08332V3.08332ZM3.08332 8.91666V6.58332H5.41666V8.91666H3.08332ZM8.91666 8.91666H6.58332V6.58332H8.91666V8.91666ZM8.91666 5.41666H6.58332V3.08332H8.91666V5.41666Z" fill="#262626"/>
</svg>
