<svg width="18" height="20" viewBox="0 0 18 20" fill="none" xmlns="http://www.w3.org/2000/svg">
<path d="M14 20.0001C13.45 20.0001 12.9793 19.8045 12.588 19.4131C12.196 19.0211 12 18.5501 12 18.0001V17.5001L4.725 13.8751L4.375 13.9621C4.275 13.9875 4.15 14.0001 4 14.0001H2C1.45 14.0001 0.979 13.8041 0.587 13.4121C0.195667 13.0208 0 12.5501 0 12.0001V10.0001C0 9.45012 0.195667 8.97912 0.587 8.58712C0.979 8.19579 1.45 8.00012 2 8.00012H4.138C4.17933 8.00012 4.225 8.00846 4.275 8.02512L7.15 4.72512C7.1 4.62512 7.06267 4.51246 7.038 4.38712C7.01267 4.26246 7 4.13346 7 4.00012V2.00012C7 1.45012 7.196 0.979122 7.588 0.587122C7.97933 0.195789 8.45 0.00012207 9 0.00012207H11C11.55 0.00012207 12.021 0.195789 12.413 0.587122C12.8043 0.979122 13 1.45012 13 2.00012V4.00012C13 4.55012 12.8043 5.02079 12.413 5.41212C12.021 5.80412 11.55 6.00012 11 6.00012H8.838C8.796 6.00012 8.75833 5.99179 8.725 5.97512L5.875 9.25012C5.90833 9.38346 5.93767 9.50412 5.963 9.61212C5.98767 9.72079 6 9.85012 6 10.0001V12.1121C6 12.1541 5.99167 12.1918 5.975 12.2251L12.125 15.3001C12.2583 14.9335 12.4917 14.6251 12.825 14.3751C13.1583 14.1251 13.55 14.0001 14 14.0001H16C16.55 14.0001 17.021 14.1958 17.413 14.5871C17.8043 14.9791 18 15.4501 18 16.0001V18.0001C18 18.5501 17.8043 19.0211 17.413 19.4131C17.021 19.8045 16.55 20.0001 16 20.0001H14Z" fill="#C3C3D0"/>
</svg>
